<svg version="1.2" xmlns="http://www.w3.org/2000/svg" viewBox="0 0 459 61" width="459" height="61">
	<style>
		.s0 { fill: #ffffff } 
	</style>
	<path fill-rule="evenodd" class="s0" d="m6 53l13-36h14l5 2v3l-5.8 12.5c1.5 1.1-12 6.4-13.2 5.5l-4 14h-9zm15-20l6.2-2.2 2.8-7.8h-5zm36-16l5 2v3l-11 30-4 2h-14l-2-3 11-31 8-3zm-16 32l3-1 9.3-24.7-3.3-0.3zm41-32l5 2v3l-11 30-4 2h-14l-2-3 11-31 8-3zm-16 32l3-1 9.2-24.5-3.2-0.5zm35-32l-11 31 8 1-1 5h-16l13-37zm31 0l-1 6h-9l-3 7v3h7l-2.2 6-7.3-0.2-3.5 10.2h7l-1 5h-16l13-37zm31 0l-13 37h-6.8l11.8-37zm28 0l-13 37h-9v-12l-5 12h-8l13-37h8l2 12 4-12zm19 0l5 2v3l-10 28-5 4h-16l13-37zm-16 32h3l8-22 1-4h-3zm47-32l-11 33-5 4-15-1 12-36h8l-10.8 32h2.8l11-32zm19 0l5 2-2 9-8.3-0.2 1.3-4.8h-3l-3 7v3l8 1 2 3-6 15-4 2h-13l-2-5 2-5h8l-1 5h3l3-10-8-1-2-4 5-13 9-4zm13 37h-9l12-30.7h-5.8l1.8-6.3h19l-1.2 6.2-7 0.6zm37-37l5 2v4l-4 11-4 2 2 4-6 14h-8l5-15h-3l-5 15h-8l13-37zm-10 16h3l3.2-9.3-3.2-0.7zm30-16l-13 37-7-0.3 12-36.7zm8.9 15.3l7.1 0.7-2 6.2-7.3-0.2-3.7 10h8l-2 5h-16l13-37 15.7 0.2-2.3 6.1-7.4-0.3zm32.2-15.3l6 4-3 7h-8l1-5h-3l-3 10 8 1 2 3-5 14-4 3h-14l-2-4 2-6h9l-2 5 4-1 2-9-8-1-1-5 5-13 7-3z"/>
	<path class="s0" d="m191 7.1c-109 1.1-179.4 2.2-181 2.8-1.3 0.6-2.2 1.2-2 1.5 0.3 0.3 94.6 0.8 209.5 1.2l209 0.8c-43.7 34.5-56.7 44.9-57 45.5-0.2 0.5 0.5 0.5 1.8-0.2 1.2-0.6 20.7-12.6 43.2-26.6 22.6-14.1 41.5-25.9 42-26.4 0.5-0.5-18.6-0.8-43-0.7-24.2 0.1-124.3 1-222.5 2.1z"/>
</svg>